<?xml version="1.0"?>
<svg xmlns="http://www.w3.org/2000/svg" viewBox="-94 0 511 511.99939" width="512px" height="512px" class=""><g><g fill-rule="evenodd"><path d="m162.351562 352.941406c35.574219 55.644532 75.574219 113.5 106.5 149.042969l45.351563-86.144531s-55.132813-70.46875-104.996094-139.179688c-13.574219 23.101563-29.703125 49.4375-46.855469 76.28125zm-97.878906-227.140625s-8.730468 38.097657 19.984375 95.046875c6.945313 13.746094 17.773438 33.222656 31.039063 55.8125 17.035156-23.46875 33.476562-46.742187 46.855468-66.898437-10.96875-16.550781-19.925781-31.035157-25.511718-41.835938-22.703125-44.023437-30.925782-64.773437-33.277344-79.710937-19.332031 8.957031-33.503906 22.222656-39.089844 37.585937zm0 0" fill="#ef685e" data-original="#EF685E" class="" data-old_color="#ef685e" style="fill:#F6A099"/><path d="m162.351562 10.035156c-32.058593 0-59.1875 14.003906-68 33.25-9.953124 27.523438-19.929687 55.019532-29.878906 82.515625 5.953125-16.355469 21.601563-30.328125 42.859375-39.257812 15.816407-6.632813 34.726563-10.519531 55.019531-10.519531 20.296876 0 39.203126 3.886718 55.019532 10.519531 21.261718 8.929687 36.910156 22.902343 42.863281 39.257812-9.953125-27.496093-19.902344-54.992187-29.878906-82.515625-8.816407-19.246094-35.945313-33.25-68.003907-33.25zm0 0" fill="#ff887f" data-original="#FF887F" class="active-path" data-old_color="#ff887f" style="fill:#FFB9B4"/><path d="m55.855469 501.984375c60.460937-69.53125 155.679687-224.21875 184.394531-281.136719 28.742188-56.949218 19.984375-95.046875 19.984375-95.046875-5.585937-15.363281-19.757813-28.628906-39.089844-37.589843-2.355469 14.941406-10.574219 35.691406-33.28125 79.710937-32.257812 62.476563-177.363281 247.921875-177.363281 247.921875zm0 0" fill="#ff887f" data-original="#FF887F" class="active-path" data-old_color="#ff887f" style="fill:#FFB9B4"/><path d="m162.351562 20.070312c-14.34375 0-27.4375 3.003907-37.898437 8.132813-9.863281 4.820313-17.261719 11.398437-20.832031 18.851563l-13.296875 36.738281c12.644531-7.285157 27.15625-12.1875 41.414062-14.910157 9.78125-1.871093 20.042969-2.863281 30.613281-2.863281 10.574219 0 20.835938.992188 30.617188 2.863281 14.257812 2.722657 28.769531 7.625 41.414062 14.910157l-13.296874-36.738281c-3.570313-7.453126-10.96875-14.03125-20.832032-18.851563-10.460937-5.128906-23.558594-8.132813-37.902344-8.132813zm-95.042968 311.554688c5.554687 0 10.0625 4.507812 10.0625 10.0625 0 5.558594-4.507813 10.0625-10.0625 10.0625-5.558594 0-10.0625-4.503906-10.0625-10.0625 0-5.554688 4.503906-10.0625 10.0625-10.0625zm15.816406-27.722656c-3.488281 4.648437-2.578125 11.253906 2.039062 14.738281 4.648438 3.488281 11.226563 2.550781 14.714844-2.097656h.027344c38.066406-50.597657 76.621094-104.824219 96.832031-144.027344 11.476563-22.195313 19.332031-38.664063 24.632813-51.5625 2.804687-6.746094 4.902344-12.558594 6.460937-17.714844 4.226563 2.664063 7.996094 5.609375 11.253907 8.757813 5.273437 5.046875 9.183593 10.601562 11.480468 16.46875.851563 4.59375 5.925782 37.984375-19.246094 87.875-42.746093 84.726562-113.019531 193.945312-173.539062 267.84375l-35.433594-67.320313c8.335938-10.6875 18.058594-23.105469 28.660156-36.710937 3.371094-4.421875 2.519532-10.742188-1.929687-14.144532-4.449219-3.402343-10.800781-2.578124-14.171875 1.84375-19.078125 24.972657-32.175781 41.667969-32.285156 41.839844-2.496094 3.171875-2.75 7.425782-.964844 10.796875l45.324219 86.175781c2.578125 4.875 8.644531 6.746094 13.523437 4.195313 1.273438-.679687 2.351563-1.589844 3.171875-2.636719 26.761719-30.8125 59.953125-77.640625 91.25-125.375 2.464844-3.773437 4.929688-7.542968 7.367188-11.3125 16.441406 25.34375 33.703125 50.910156 50.371093 74.210938 17.121094 23.925781 33.734376 45.636718 48.359376 62.476562.851562 1.046875 1.898437 1.957032 3.175781 2.636719 4.875 2.550781 10.941406.679687 13.523437-4.195313l45.351563-86.175781c1.757812-3.371093 1.503906-7.625-.992188-10.796875-.140625-.199218-52.355469-66.84375-100.996093-133.511718 11.902343-20.4375 21.65625-38.042969 28.089843-50.824219 30.359375-60.183594 20.890625-101.539063 20.863281-101.652344-3.6875-17.121094-22.679687-69.390625-30.8125-85.039063-5.527343-11.679687-16.242187-21.570312-30.21875-28.402343-13.148437-6.433594-29.308593-10.261719-46.65625-10.261719-17.347656 0-33.476562 3.828125-46.65625 10.261719-14.175781 6.917969-24.972656 17.007812-30.445312 28.886719-8.359375 18.28125-26.53125 65.789062-30.585938 84.554687-.027343.113281-9.496093 41.472656 20.863282 101.652344 3.175781 6.292969 7.769531 14.824219 13.097656 24.40625 4.902344 8.816406 10.007812 17.828125 14.96875 26.359375-6.804688 9.328125-13.695312 18.652344-20.46875 27.78125zm31.945312-209.679688c1.390626 5.21875 3.542969 11.425782 6.746094 19.136719 5.046875 12.214844 12.671875 28.175781 23.925782 50 2.378906 4.59375 5.8125 10.519531 9.808593 17.09375 2.210938 3.601563 4.507813 7.285156 6.832031 10.972656 6.941407-10.855469 12.613282-20.410156 16.582032-28.0625 11.253906-21.828125 18.878906-37.785156 23.921875-50.003906 3.203125-7.710937 5.359375-13.917969 6.75-19.132813-6.324219-2.382812-13.15625-4.28125-20.441407-5.671874-8.417968-1.613282-17.429687-2.492188-26.84375-2.492188-9.410156 0-18.425781.878906-26.84375 2.492188-7.285156 1.386718-14.117187 3.289062-20.4375 5.667968zm35.320313 115.484375c-4.308594-6.605469-8.390625-13.066406-11.90625-18.824219-4.25-6.972656-7.9375-13.320312-10.515625-18.367187-11.480469-22.195313-19.304688-38.664063-24.632812-51.5625-2.808594-6.746094-4.902344-12.558594-6.464844-17.714844-4.222656 2.664063-7.992188 5.613281-11.253906 8.757813-5.269532 5.046875-9.183594 10.601562-11.480469 16.46875-.847657 4.59375-5.921875 37.984375 19.25 87.875 3.171875 6.292968 7.625 14.542968 12.699219 23.699218 3.058593 5.496094 6.574218 11.707032 10.375 18.28125 12.1875-16.980468 23.808593-33.5625 33.929687-48.613281zm23.753906 143.375c17.574219 27.296875 36.453125 55.417969 54.824219 81.070313 13.234375 18.511718 26.132812 35.605468 37.953125 50.03125l35.433594-67.292969c-12.671875-16.273437-53.433594-68.855469-92.351563-121.945313-10.886718 18.226563-23.046875 37.984376-35.859375 58.136719zm0 0" data-original="#000000" class="" style="fill:#000000"/></g></g> </svg>
